<svg width="1119" height="834" viewBox="0 0 1119 834" fill="none" xmlns="http://www.w3.org/2000/svg">
  <g opacity="0.15">
    <!-- Curved flowing lines pattern -->
    <path d="M0 100 Q 200 80, 400 90 T 800 85 T 1119 95" stroke="currentColor" stroke-width="1" fill="none"/>
    <path d="M0 140 Q 200 120, 400 130 T 800 125 T 1119 135" stroke="currentColor" stroke-width="1" fill="none"/>
    <path d="M0 180 Q 200 160, 400 170 T 800 165 T 1119 175" stroke="currentColor" stroke-width="1" fill="none"/>
    <path d="M0 220 Q 200 200, 400 210 T 800 205 T 1119 215" stroke="currentColor" stroke-width="1" fill="none"/>
    <path d="M0 260 Q 200 240, 400 250 T 800 245 T 1119 255" stroke="currentColor" stroke-width="1" fill="none"/>
    <path d="M0 300 Q 200 280, 400 290 T 800 285 T 1119 295" stroke="currentColor" stroke-width="1" fill="none"/>
    <path d="M0 340 Q 200 320, 400 330 T 800 325 T 1119 335" stroke="currentColor" stroke-width="1" fill="none"/>
    <path d="M0 380 Q 200 360, 400 370 T 800 365 T 1119 375" stroke="currentColor" stroke-width="1" fill="none"/>
    <path d="M0 420 Q 200 400, 400 410 T 800 405 T 1119 415" stroke="currentColor" stroke-width="1" fill="none"/>
    <path d="M0 460 Q 200 440, 400 450 T 800 445 T 1119 455" stroke="currentColor" stroke-width="1" fill="none"/>
    <path d="M0 500 Q 200 480, 400 490 T 800 485 T 1119 495" stroke="currentColor" stroke-width="1" fill="none"/>
    <path d="M0 540 Q 200 520, 400 530 T 800 525 T 1119 535" stroke="currentColor" stroke-width="1" fill="none"/>
    <path d="M0 580 Q 200 560, 400 570 T 800 565 T 1119 575" stroke="currentColor" stroke-width="1" fill="none"/>
    <path d="M0 620 Q 200 600, 400 610 T 800 605 T 1119 615" stroke="currentColor" stroke-width="1" fill="none"/>
    <path d="M0 660 Q 200 640, 400 650 T 800 645 T 1119 655" stroke="currentColor" stroke-width="1" fill="none"/>
    <path d="M0 700 Q 200 680, 400 690 T 800 685 T 1119 695" stroke="currentColor" stroke-width="1" fill="none"/>
    <path d="M0 740 Q 200 720, 400 730 T 800 725 T 1119 735" stroke="currentColor" stroke-width="1" fill="none"/>
    <path d="M0 780 Q 200 760, 400 770 T 800 765 T 1119 775" stroke="currentColor" stroke-width="1" fill="none"/>
  </g>
</svg>
